<svg width="17" height="18" viewBox="0 0 17 18" fill="none" xmlns="http://www.w3.org/2000/svg">
<path fill-rule="evenodd" clip-rule="evenodd" d="M0 13.383V6.53131H16.2V13.4379C16.2 16.263 14.4217 18 11.5765 18H4.6146C1.79605 18 0 16.227 0 13.383ZM4.46344 11.169C4.05445 11.1879 3.71658 10.863 3.69879 10.4499C3.69879 10.0359 4.01888 9.69391 4.42788 9.67501C4.82799 9.67501 5.15697 9.99091 5.16586 10.395C5.18364 10.8099 4.86355 11.1519 4.46344 11.169ZM8.11782 11.169C7.70877 11.1879 7.37091 10.863 7.35309 10.4499C7.35309 10.0359 7.67322 9.69391 8.08218 9.67501C8.48232 9.67501 8.81127 9.99091 8.82018 10.395C8.838 10.8099 8.51787 11.1519 8.11782 11.169ZM11.7455 14.481C11.3364 14.472 11.0075 14.13 11.0075 13.716C10.9985 13.302 11.3276 12.9609 11.7365 12.9519H11.7455C12.1633 12.9519 12.5012 13.2939 12.5012 13.716C12.5012 14.139 12.1633 14.481 11.7455 14.481ZM7.35309 13.716C7.37091 14.13 7.70877 14.4549 8.11782 14.436C8.51787 14.4189 8.838 14.0769 8.82018 13.6629C8.81127 13.2579 8.48232 12.942 8.08218 12.942C7.67322 12.9609 7.35309 13.302 7.35309 13.716ZM3.6899 13.716C3.70768 14.13 4.04555 14.4549 4.45456 14.436C4.85466 14.4189 5.17476 14.0769 5.15697 13.6629C5.14808 13.2579 4.8191 12.942 4.41899 12.942C4.00999 12.9609 3.6899 13.302 3.6899 13.716ZM11.0164 10.4409C11.0164 10.0269 11.3364 9.69391 11.7455 9.68491C12.1456 9.68491 12.4656 10.008 12.4834 10.4049C12.4924 10.8189 12.1722 11.1609 11.7721 11.169C11.3631 11.178 11.0253 10.863 11.0164 10.4499V10.4409Z" fill="url(#paint0_linear_871_65)"/>
<path opacity="0.4" d="M0.00305176 6.53118C0.0146078 6.00288 0.0590678 4.95438 0.142642 4.61688C0.569431 2.71878 2.01871 1.51278 4.09039 1.34088H12.1104C14.1643 1.52178 15.6314 2.73588 16.0581 4.61688C16.1408 4.94538 16.1853 6.00198 16.1968 6.53118H0.00305176Z" fill="url(#paint1_linear_871_65)"/>
<path d="M4.77441 4.131C5.16563 4.131 5.45904 3.8349 5.45904 3.438V0.6939C5.45904 0.297 5.16563 0 4.77441 0C4.38319 0 4.08978 0.297 4.08978 0.6939V3.438C4.08978 3.8349 4.38319 4.131 4.77441 4.131Z" fill="url(#paint2_linear_871_65)"/>
<path d="M11.4255 4.131C11.8078 4.131 12.1101 3.8349 12.1101 3.438V0.6939C12.1101 0.297 11.8078 0 11.4255 0C11.0342 0 10.7408 0.297 10.7408 0.6939V3.438C10.7408 3.8349 11.0342 4.131 11.4255 4.131Z" fill="url(#paint3_linear_871_65)"/>
<defs>
<linearGradient id="paint0_linear_871_65" x1="-8.34555" y1="12.3526" x2="2.69063" y2="27.7089" gradientUnits="userSpaceOnUse">
<stop stop-color="#F1F1F1"/>
<stop offset="1" stop-color="#797979"/>
</linearGradient>
<linearGradient id="paint1_linear_871_65" x1="-8.33929" y1="3.97537" x2="-5.23844" y2="13.5056" gradientUnits="userSpaceOnUse">
<stop stop-color="#F1F1F1"/>
<stop offset="1" stop-color="#797979"/>
</linearGradient>
<linearGradient id="paint2_linear_871_65" x1="3.3844" y1="2.09681" x2="5.85937" y2="2.90491" gradientUnits="userSpaceOnUse">
<stop stop-color="#F1F1F1"/>
<stop offset="1" stop-color="#797979"/>
</linearGradient>
<linearGradient id="paint3_linear_871_65" x1="10.0355" y1="2.09681" x2="12.5104" y2="2.90491" gradientUnits="userSpaceOnUse">
<stop stop-color="#F1F1F1"/>
<stop offset="1" stop-color="#797979"/>
</linearGradient>
</defs>
</svg>
