<svg width="21" height="24" viewBox="0 0 21 24" fill="none" xmlns="http://www.w3.org/2000/svg">
<path d="M3.34583 3.25L2.82555 3.79019C2.9653 3.9248 3.15179 4 3.34583 4V3.25ZM20.1251 3.25L20.8527 3.4319C20.9087 3.20785 20.8584 2.97048 20.7163 2.78844C20.5741 2.6064 20.3561 2.5 20.1251 2.5V3.25ZM17.6251 13.25V14C17.9693 14 18.2693 13.7658 18.3527 13.4319L17.6251 13.25ZM13.7306 13.25V12.5C13.4247 12.5 13.1494 12.6858 13.035 12.9695C12.9206 13.2533 12.99 13.5781 13.2104 13.7903L13.7306 13.25ZM17.6251 17V17.75C17.9311 17.75 18.2063 17.5642 18.3207 17.2805C18.4351 16.9967 18.3657 16.6719 18.1453 16.4597L17.6251 17ZM3.87512 13.25V14C4.10607 14 4.32415 13.8936 4.46628 13.7116C4.60841 13.5295 4.65874 13.2922 4.60273 13.0681L3.87512 13.25ZM0.750122 0.75L1.2704 0.209805C1.02947 -0.0222384 0.664007 -0.0666846 0.374486 0.100848C0.0849656 0.268381 -0.0586127 0.60739 0.0225152 0.931902L0.750122 0.75ZM3.87512 20.75V21.5C4.15126 21.5 4.37512 21.7239 4.37512 22H5.12512H5.87512C5.87512 20.8954 4.97969 20 3.87512 20V20.75ZM5.12512 22H4.37512C4.37512 22.2761 4.15126 22.5 3.87512 22.5V23.25V24C4.97969 24 5.87512 23.1046 5.87512 22H5.12512ZM3.87512 23.25V22.5C3.59898 22.5 3.37512 22.2761 3.37512 22H2.62512H1.87512C1.87512 23.1046 2.77055 24 3.87512 24V23.25ZM2.62512 22H3.37512C3.37512 21.7239 3.59898 21.5 3.87512 21.5V20.75V20C2.77055 20 1.87512 20.8954 1.87512 22H2.62512ZM16.3751 20.75V21.5C16.6513 21.5 16.8751 21.7239 16.8751 22H17.6251H18.3751C18.3751 20.8954 17.4797 20 16.3751 20V20.75ZM17.6251 22H16.8751C16.8751 22.2761 16.6513 22.5 16.3751 22.5V23.25V24C17.4797 24 18.3751 23.1046 18.3751 22H17.6251ZM16.3751 23.25V22.5C16.099 22.5 15.8751 22.2761 15.8751 22H15.1251H14.3751C14.3751 23.1046 15.2706 24 16.3751 24V23.25ZM15.1251 22H15.8751C15.8751 21.7239 16.099 21.5 16.3751 21.5V20.75V20C15.2706 20 14.3751 20.8954 14.3751 22H15.1251ZM3.34583 3.25V4H20.1251V3.25V2.5H3.34583V3.25ZM20.1251 3.25L19.3975 3.0681L16.8975 13.0681L17.6251 13.25L18.3527 13.4319L20.8527 3.4319L20.1251 3.25ZM17.6251 13.25V12.5H13.7306V13.25V14H17.6251V13.25ZM13.7306 13.25L13.2104 13.7903L17.1049 17.5403L17.6251 17L18.1453 16.4597L14.2508 12.7097L13.7306 13.25ZM17.6251 17V16.25H3.25012V17V17.75H17.6251V17ZM3.25012 17V16.25C2.6288 16.25 2.12512 15.7463 2.12512 15.125H1.37512H0.625122C0.625122 16.5747 1.80037 17.75 3.25012 17.75V17ZM1.37512 15.125H2.12512C2.12512 14.5037 2.6288 14 3.25012 14V13.25V12.5C1.80037 12.5 0.625122 13.6753 0.625122 15.125H1.37512ZM3.25012 13.25V14H3.87512V13.25V12.5H3.25012V13.25ZM3.87512 13.25L4.60273 13.0681L1.47773 0.568098L0.750122 0.75L0.0225152 0.931902L3.14752 13.4319L3.87512 13.25ZM0.750122 0.75L0.229844 1.2902L2.82555 3.79019L3.34583 3.25L3.8661 2.70981L1.2704 0.209805L0.750122 0.75Z" fill="#C1CEDC"/>
</svg>
