<svg width="18" height="17" viewBox="0 0 18 17" fill="none" xmlns="http://www.w3.org/2000/svg">
<path opacity="0.4" d="M18 11.6465C18 14.1575 15.984 16.1915 13.473 16.2005H13.464H4.545C2.043 16.2005 0 14.1755 0 11.6645V11.6555C0 11.6555 0.0054 7.67212 0.0126 5.66872C0.0135 5.29252 0.4455 5.08192 0.7398 5.31592C2.8782 7.01242 6.7023 10.1057 6.75 10.1462C7.389 10.6583 8.199 10.9472 9.027 10.9472C9.855 10.9472 10.665 10.6583 11.304 10.1363C11.3517 10.1048 15.0903 7.10422 17.2611 5.37982C17.5563 5.14492 17.9901 5.35552 17.991 5.73082C18 7.71892 18 11.6465 18 11.6465Z" fill="url(#paint0_linear_2_212)"/>
<path d="M17.5283 2.4066C16.7489 0.9378 15.2153 0 13.5269 0H4.5449C2.8565 0 1.3229 0.9378 0.543495 2.4066C0.368895 2.7351 0.451695 3.1446 0.742395 3.3768L7.4249 8.7219C7.8929 9.0999 8.4599 9.288 9.0269 9.288C9.0305 9.288 9.0332 9.288 9.0359 9.288C9.0386 9.288 9.0422 9.288 9.0449 9.288C9.6119 9.288 10.1789 9.0999 10.6469 8.7219L17.3294 3.3768C17.6201 3.1446 17.7029 2.7351 17.5283 2.4066Z" fill="url(#paint1_linear_2_212)"/>
<defs>
<linearGradient id="paint0_linear_2_212" x1="-9.27284" y1="10.7924" x2="0.710382" y2="26.9098" gradientUnits="userSpaceOnUse">
<stop stop-color="#5AB0FF"/>
<stop offset="1" stop-color="#0079FF"/>
</linearGradient>
<linearGradient id="paint1_linear_2_212" x1="-8.39082" y1="4.71439" x2="-0.432824" y2="19.2031" gradientUnits="userSpaceOnUse">
<stop stop-color="#5AB0FF"/>
<stop offset="1" stop-color="#0079FF"/>
</linearGradient>
</defs>
</svg>
