<svg width="16" height="18" viewBox="0 0 16 18" fill="none" xmlns="http://www.w3.org/2000/svg">
<path fill-rule="evenodd" clip-rule="evenodd" d="M3.8421 6.0426H11.4579C13.5801 6.0426 15.3 7.7247 15.3 9.7992V14.2425C15.3 16.3179 13.5801 18 11.4579 18H3.8421C1.7199 18 0 16.3179 0 14.2425V9.7992C0 7.7247 1.7199 6.0426 3.8421 6.0426ZM7.6455 13.7961C8.0937 13.7961 8.4501 13.4478 8.4501 13.0095V11.0241C8.4501 10.5948 8.0937 10.2456 7.6455 10.2456C7.2063 10.2456 6.8499 10.5948 6.8499 11.0241V13.0095C6.8499 13.4478 7.2063 13.7961 7.6455 13.7961Z" fill="url(#paint0_linear_2_234)"/>
<path opacity="0.4" d="M12.6207 4.8564V6.1803C12.3003 6.0903 11.9619 6.0462 11.6145 6.0462H11.0205V4.8564C11.0205 3.0411 9.51122 1.5651 7.65452 1.5651C5.79782 1.5651 4.28942 3.0321 4.28042 4.8384V6.0462H3.69452C3.33812 6.0462 2.99972 6.0903 2.67932 6.1893V4.8564C2.68922 2.1735 4.91132 0 7.63652 0C10.3986 0 12.6207 2.1735 12.6207 4.8564Z" fill="url(#paint1_linear_2_234)"/>
<defs>
<linearGradient id="paint0_linear_2_234" x1="-7.88191" y1="12.1119" x2="3.94002" y2="27.0127" gradientUnits="userSpaceOnUse">
<stop stop-color="#5AB0FF"/>
<stop offset="1" stop-color="#0079FF"/>
</linearGradient>
<linearGradient id="paint1_linear_2_234" x1="-2.44207" y1="3.14156" x2="3.23372" y2="12.122" gradientUnits="userSpaceOnUse">
<stop stop-color="#5AB0FF"/>
<stop offset="1" stop-color="#0079FF"/>
</linearGradient>
</defs>
</svg>
