<svg width="19" height="20" viewBox="0 0 19 20" fill="none" xmlns="http://www.w3.org/2000/svg">
<path opacity="0.4" d="M13.2551 8C12.844 8 12.5103 7.67634 12.5103 7.27754V4.35689C12.5103 2.75111 11.1635 1.44491 9.5089 1.44491C8.7472 1.44491 7.9477 1.7416 7.3786 2.28778C6.8085 2.83588 6.4927 3.56508 6.4897 4.34341V7.27754C6.4897 7.67634 6.156 8 5.7449 8C5.3337 8 5 7.67634 5 7.27754V4.35689C5.005 3.17303 5.4777 2.08067 6.3298 1.26285C7.181 0.44311 8.2814 0.03179 9.5119 0C11.9849 0 14 1.95449 14 4.35689V7.27754C14 7.67634 13.6663 8 13.2551 8Z" fill="url(#paint0_linear_2_459)"/>
<path d="M14.1201 5C16.8105 5 18.9998 7.1687 19 9.83496V15.165C18.9998 17.8313 16.8105 20 14.1201 20H4.87988C2.18953 20 0.000240095 17.8313 0 15.165V9.83496C0.000240359 7.1687 2.18953 5 4.87988 5H14.1201ZM6 8C5.44772 8 5 8.44772 5 9C5 9.55228 5.44772 10 6 10C6.55228 10 7 9.55228 7 9C7 8.44772 6.55228 8 6 8ZM13 8C12.4477 8 12 8.44772 12 9C12 9.55228 12.4477 10 13 10C13.5523 10 14 9.55228 14 9C14 8.44772 13.5523 8 13 8Z" fill="url(#paint1_linear_2_459)"/>
<defs>
<linearGradient id="paint0_linear_2_459" x1="0.363582" y1="4.06063" x2="8.44308" y2="13.0144" gradientUnits="userSpaceOnUse">
<stop stop-color="#5AB0FF"/>
<stop offset="1" stop-color="#0079FF"/>
</linearGradient>
<linearGradient id="paint1_linear_2_459" x1="-9.78799" y1="12.6137" x2="5.0755" y2="31.1597" gradientUnits="userSpaceOnUse">
<stop stop-color="#5AB0FF"/>
<stop offset="1" stop-color="#0079FF"/>
</linearGradient>
</defs>
</svg>
